<svg width="192" height="373" viewBox="0 0 192 373" fill="none" xmlns="http://www.w3.org/2000/svg">
<path d="M55.7586 135.255C69.2095 141.546 79.8451 148.735 88.1346 156.972C95.7984 164.685 102.993 174.345 105.417 180.336C106.278 182.358 107.216 184.68 107.529 185.354C107.92 186.327 107.763 186.702 106.903 186.702C106.278 186.702 103.932 183.631 101.664 179.962C92.4357 164.535 83.0514 154.651 72.2594 148.959C68.4275 146.863 62.7186 143.568 59.5123 141.546C49.6588 135.18 41.2911 132.709 35.1913 134.282C32.6106 134.956 31.7503 135.63 30.8119 137.652C29.4043 141.021 31.2811 145.883 32.8452 151.5C33.4708 153.971 42.2346 186.477 42 186.702C40.6706 187.975 24.3744 144.268 25 140C25.9384 133.41 32.4542 130.313 41.2129 130.762C46.1397 130.987 47.9383 131.586 55.7586 135.255Z" fill="#35CC00"/>
<path d="M52.0831 112.64C58.5739 117.208 67.9582 124.996 75.7003 132.185C81.0181 137.202 82.895 139.449 82.895 140.872C82.895 142.744 82.895 142.744 80.3925 140.123C76.7952 136.379 64.9865 126.044 66.8634 128.291C67.8018 129.339 71.2428 133.084 74.5273 136.603C77.8118 140.198 80.5489 143.493 80.5489 143.942C80.5489 144.391 81.0963 144.766 81.7219 144.766C82.3476 144.766 82.895 145.29 82.895 145.889C82.895 147.836 81.7219 147.087 78.5938 143.118C76.8734 140.947 68.1928 132.11 59.2777 123.423C50.3626 114.812 43.0115 107.623 43.0115 107.473C43.0115 106.949 48.4857 110.094 52.0831 112.64Z" fill="#35CC00"/>
<path d="M16.579 51.3088C20.3327 52.8065 22.9916 54.9034 21.193 54.9034C19.2379 54.9034 20.6455 56.3261 26.0415 59.9206C32.5324 64.2639 43.4808 74.8976 50.9882 84.1833C59.3559 94.5175 76.1695 119.904 79.6887 127.467C81.4873 131.361 82.7386 134.656 82.5822 134.806C81.8783 135.48 76.3259 127.991 73.8234 122.974C72.3376 119.979 69.8351 115.86 68.1928 113.763C40.4309 76.9195 31.5157 66.5108 19.3161 56.7008C17.5174 55.278 7.03825 50.4102 5.7088 50.4102C4.53576 50.4102 3.67553 49.1372 4.30115 48.2386C4.77037 47.4149 10.792 48.9125 16.579 51.3088Z" fill="#35CC00"/>
<path d="M35.0349 16.4872C39.4142 24.6497 45.5922 36.182 48.8768 42.1729C60.6072 63.4403 65.1429 74.7479 69.5223 93.5442C70.9299 99.2354 72.1812 104.552 72.494 105.376C73.1196 107.473 71.3992 106.2 69.9133 103.504C69.2877 102.231 67.0198 95.2665 64.9083 88.0026C59.9033 70.5543 56.5406 60.6696 54.5856 57.4496C52.1613 53.4807 52.0831 54.9033 54.4291 60.2201C58.6521 69.8055 67.0198 96.5395 66.1596 97.4381C65.6122 97.9623 64.5173 95.1167 62.8751 88.9012C59.9033 77.4438 35.4259 19.3328 28.4658 7.12646C25.5723 2.03427 25.4941 1.73474 26.5108 1.73474C26.9018 1.73474 30.7337 8.39957 35.0349 16.4872Z" fill="#35CC00"/>
<path d="M69.5223 35.0587C67.7236 53.4056 69.2877 66.81 75.4657 84.4829C78.672 93.7687 80.7835 103.354 79.2194 101.707C78.8284 101.257 77.499 97.8126 76.4041 93.9935C73.9017 85.7561 71.1646 78.6418 70.6953 79.0911C70.3043 79.4655 74.7619 94.4427 77.6554 102.53C79.6105 107.997 81.2527 118.481 79.8451 116.234C78.2028 113.763 70.3043 87.3286 68.3493 77.5934C66.3942 68.0081 66.316 66.3608 66.707 54.1545C67.1762 42.6221 68.1928 32.6624 69.2877 29.5172C69.9915 27.3456 70.1479 29.2177 69.5223 35.0587Z" fill="#35CC00"/>
<path d="M86.1795 49.287C85.3193 54.529 84.9282 62.6913 84.9282 76.6199C84.85 97.1385 85.1628 100.359 89.1512 120.054C89.9332 123.948 91.1845 132.859 91.8101 139.748C92.5139 146.713 93.2959 153.303 93.5305 154.351L93.9216 156.373L92.3575 154.576C91.1845 153.378 90.7152 151.73 90.637 149.334C90.5588 144.99 90.0896 141.396 89.1512 138.026C88.7602 136.603 88.3692 133.383 88.291 130.912C88.2128 128.441 87.8999 125.595 87.5871 124.547C87.0397 122.824 87.2743 131.96 88.1346 145.889C88.4474 150.532 88.3692 150.981 87.3525 150.008C86.5705 149.259 86.0231 146.563 85.7103 142.145C85.4757 138.4 84.6936 132.185 83.9898 128.291C82.1129 117.433 81.9565 63.5901 83.9116 52.9564C85.1628 45.6925 86.4923 40.8998 87.1179 41.4989C87.2743 41.6487 86.8051 45.1683 86.1795 49.287Z" fill="#35CC00"/>
<path d="M99.5522 102.83C98.2227 123.573 98.3009 125.895 101.273 145.14C102.837 155.399 104.401 164.985 104.792 166.408C105.183 167.83 105.339 169.178 105.183 169.403C104.244 170.227 102.524 166.557 102.055 162.738C100.334 149.409 97.7535 133.982 97.0497 133.308C95.7984 132.11 95.9548 133.458 98.1445 149.184C99.2394 156.747 99.9432 163.113 99.7868 163.262C98.6919 164.311 96.8151 158.395 95.4856 149.858C94.1562 141.171 94.078 138.176 94.6254 126.044C95.0164 118.406 95.5638 109.42 95.8766 105.975C96.3458 100.209 96.5023 99.7595 98.0663 99.9842C99.3958 100.134 99.7086 100.658 99.5522 102.83Z" fill="#35CC00"/>
<path d="M112.377 71.9772C110.11 75.2722 106.981 81.7871 104.401 88.6017C102.211 94.4428 101.82 94.967 99.7868 95.1917C97.6753 95.4163 97.5971 95.3414 98.1445 93.3195C99.7868 87.0291 106.199 73.0257 108.624 70.4047C111.048 67.8586 111.439 67.6339 112.534 68.7571C113.629 69.8055 113.629 70.1051 112.377 71.9772Z" fill="#35CC00"/>
<path d="M105.965 99.9093C111.283 104.627 125.672 125.895 133.727 140.947C135.291 144.017 139.983 155.849 139.983 156.897C139.983 158.619 138.497 157.122 137.637 154.426C135.916 149.409 135.838 152.404 137.559 157.871C139.592 164.386 137.872 164.011 135.447 157.421C129.895 142.444 118.946 119.979 113.081 111.517C108.311 104.702 102.837 99.385 99.7868 98.6362C96.9715 97.9622 97.2061 96.839 100.1 96.839C101.82 96.839 103.462 97.7377 105.965 99.9093Z" fill="#35CC00"/>
<path d="M100.96 184.455C102.289 186.552 104.088 188.424 105.105 188.649C106.669 189.023 106.825 189.397 106.512 194.04C106.356 196.811 106.199 199.507 106.121 200.106C105.808 201.978 100.882 194.415 100.882 192.093C100.882 190.82 100.178 187.75 99.3958 185.279C98.6137 182.733 98.0663 180.711 98.2227 180.711C98.3791 180.711 99.6304 182.433 100.96 184.455Z" fill="#35CC00"/>
<path d="M112.612 184.829C113.785 186.177 113.003 187.45 110.892 187.45C109.797 187.45 109.484 187.076 109.797 186.252C110.031 185.578 110.266 184.754 110.266 184.38C110.266 183.332 111.517 183.556 112.612 184.829Z" fill="#35CC00"/>
<path d="M134.509 162.738C136.229 164.386 137.637 166.108 137.637 166.557C137.637 167.007 138.654 168.879 139.905 170.601C141.156 172.398 142.016 174.046 141.703 174.271C140.609 175.394 139.201 174.42 137.715 171.5C136.307 168.729 131.146 162.738 130.129 162.738C129.895 162.738 128.878 163.262 127.862 163.936C125.672 165.284 125.437 164.985 126.767 162.514C128.8 158.844 130.52 158.919 134.509 162.738Z" fill="#35CC00"/>
<path d="M148.585 167.905C148.976 168.729 149.367 170.077 149.367 170.901C149.367 172.174 148.898 172.473 146.63 172.473C144.753 172.473 143.737 172.024 143.111 171.05C141.938 168.879 142.173 167.98 143.815 167.98C144.675 167.98 145.614 167.606 145.848 167.231C146.63 166.033 147.647 166.333 148.585 167.905Z" fill="#35CC00"/>
<path d="M182.682 100.209C185.732 102.455 186.983 104.402 187.687 108.222C188.391 111.816 187.765 111.816 185.419 108.072C183.464 105.076 180.57 103.579 176.973 103.579C173.219 103.579 163.6 114.662 157.735 125.67C153.981 132.784 153.669 133.533 149.367 148.884C144.832 164.91 144.128 167.007 143.111 166.033C142.173 165.135 144.675 151.206 147.099 143.568C150.462 132.934 164.382 107.248 169.074 103.129C175.096 97.7377 178.381 97.0637 182.682 100.209Z" fill="#35CC00"/>
<path d="M128.878 10.9456C129.582 11.6945 129.347 12.7429 128.174 15.0643C126.61 18.0598 126.61 18.6588 127.392 26.9711C128.487 37.8295 132.006 61.3433 136.073 85.4564C138.888 101.856 139.827 109.644 138.888 108.746C138.732 108.596 137.246 101.257 135.604 92.4209C133.961 83.6593 132.476 76.7697 132.319 77.2191C132.163 77.6684 133.492 85.7561 135.213 95.2665C138.497 112.865 138.966 116.983 137.715 114.812C137.324 114.212 136.777 112.191 136.464 110.319C136.151 108.446 134.509 99.9094 132.867 91.3725C126.376 57.8987 124.812 46.2915 124.812 29.4423C124.733 19.0333 125.046 13.4168 125.672 11.994C126.767 9.74747 127.627 9.44791 128.878 10.9456Z" fill="#35CC00"/>
<path d="M115.662 63.5901C118.164 65.6869 120.041 68.3826 123.326 75.0474C128.8 86.2054 131.381 92.5706 131.303 95.1917C131.303 97.588 131.694 98.3366 126.219 85.7559C124.264 81.113 122.466 77.3688 122.309 77.5186C122.153 77.6683 123.326 81.4874 124.733 85.9057C127.705 94.8919 127.783 95.1917 126.689 94.1432C126.298 93.7688 124.499 89.4254 122.778 84.4829C119.416 75.1971 116.131 68.9072 113.472 66.5858C112.065 65.3876 111.517 65.3126 109.562 66.1363C108.311 66.5856 106.356 68.3079 105.261 69.9554C104.088 71.528 103.071 72.8758 102.837 72.8758C102.211 72.8758 105.574 65.2375 107.216 62.991C109.328 60.1453 111.595 60.2951 115.662 63.5901Z" fill="#35CC00"/>
<path d="M163.366 60.5196C167.276 62.242 178.302 69.5809 178.302 70.4047C178.302 70.5544 176.817 69.8055 175.018 68.7571C168.918 65.1626 163.366 63.0659 160.394 63.2905C158.048 63.5152 157.344 64.0396 155.858 66.5108C153.512 70.4048 152.104 75.1222 150.149 85.082C148.82 92.3459 144.988 118.481 143.346 132.41L142.72 137.652L142.251 131.661L141.86 125.67L141.703 133.158C141.547 141.621 140.843 146.263 139.905 146.263C136.464 146.263 144.675 83.8843 150.228 67.8588C151.792 63.2908 155.858 58.6475 158.204 58.6475C158.752 58.6475 161.02 59.5461 163.366 60.5196Z" fill="#35CC00"/>
<path d="M131.537 100.733C130.52 101.707 128.487 100.658 127.94 98.9358C127.236 96.2399 128.409 95.7157 130.364 97.9622C131.537 99.1604 132.006 100.284 131.537 100.733Z" fill="#35CC00"/>
<path d="M133.57 111.592L137.559 121.177L136.933 128.815C135.995 141.171 135.682 140.647 132.554 121.926C131.459 115.336 130.051 108.147 129.504 105.975C127.627 99.2354 129.426 101.707 133.57 111.592Z" fill="#35CC00"/>
<path d="M158.752 99.9842C157.031 104.627 154.607 112.34 153.277 117.058C150.54 126.868 144.597 143.493 144.05 142.968C143.346 142.22 145.692 130.163 147.96 122.675C151.166 112.415 160.159 91.5971 161.411 91.5971C161.645 91.5971 160.394 95.4162 158.752 99.9842Z" fill="#35CC00"/>
<path d="M116.366 196.886C117.773 200.855 121.918 211.339 125.515 220.25C129.191 229.086 132.163 236.799 132.163 237.323C132.163 238.297 130.442 239.121 128.409 239.121C127.705 239.121 126.063 238.297 124.812 237.398C123.013 235.975 121.684 233.205 118.086 223.32C115.584 216.58 112.69 208.867 111.595 206.172C110.501 203.401 109.562 199.207 109.406 196.437C109.093 191.943 109.249 191.569 111.048 190.67C112.143 190.146 113.159 189.697 113.394 189.697C113.629 189.697 114.958 192.917 116.366 196.886Z" fill="#CCB800"/>
<path d="M138.184 254.846C143.346 267.128 148.585 283.003 148.585 286.373C148.585 288.171 145.066 289.743 143.58 288.62C141.391 286.897 132.867 267.053 132.085 261.886C131.694 259.115 130.442 254.397 129.347 251.327C126.845 244.363 127.627 240.169 131.303 240.843C131.928 240.918 134.9 247.058 138.184 254.846Z" fill="#CCB800"/>
<path d="M115.115 225.042C117.93 233.28 119.025 235.451 121.84 238.447C124.421 241.217 125.124 242.416 124.812 243.988C124.577 245.037 125.281 248.631 126.376 252.001C128.487 258.965 128.253 260.538 125.828 255.296C124.968 253.274 123.091 250.503 121.684 249.005C119.416 246.609 119.025 245.561 118.634 240.993C118.321 237.773 116.757 231.857 114.567 225.642C110.813 214.858 110.892 215.158 111.361 215.158C111.595 215.158 113.238 219.576 115.115 225.042Z" fill="#CCB800"/>
<path d="M141.86 294.91C138.654 298.954 137.793 298.355 137.872 292.065V286.523L140.921 289.444L143.971 292.364L141.86 294.91Z" fill="#CCB800"/>
<path d="M148.351 295.434C148.116 296.408 147.49 299.179 147.021 301.65C145.692 307.716 144.988 308.165 143.971 303.522C142.72 297.981 142.877 297.082 145.301 295.36C148.038 293.338 148.898 293.413 148.351 295.434Z" fill="#CCB800"/>
<path d="M151.557 272.07C152.104 272.894 153.199 273.568 154.06 273.568C155.858 273.568 155.78 274.017 153.512 281.805L152.261 285.924L150.775 281.431C148.585 274.916 148.116 270.572 149.446 270.572C150.071 270.572 151.01 271.246 151.557 272.07Z" fill="#CCB800"/>
<path d="M154.607 213.66C155.154 215.532 156.171 220.924 156.797 225.642C157.422 230.359 158.595 237.099 159.456 240.543C161.098 247.208 160.863 248.856 157.97 250.353C157.188 250.728 155.467 251.102 154.138 251.102C151.948 251.102 151.713 250.803 150.228 246.235C149.367 243.614 147.882 235.227 146.943 227.663C145.301 214.409 145.301 213.885 146.63 211.863C147.803 210.215 148.507 209.841 150.853 210.066C153.356 210.29 153.669 210.59 154.607 213.66Z" fill="#CCB800"/>
<path d="M162.818 255.446C163.444 257.617 163.209 258.291 160.394 261.436C157.109 265.255 154.842 269.075 154.842 270.947C154.842 271.546 154.529 272.07 154.138 272.07C152.183 272.07 152.183 258.291 154.06 254.846C154.842 253.424 157.031 252.675 160.238 252.899C161.723 252.974 162.349 253.573 162.818 255.446Z" fill="#CCB800"/>
<path d="M150.54 253.349C151.166 254.247 150.149 257.842 149.289 257.842C148.898 257.842 148.585 256.644 148.585 255.221C148.585 252.75 149.524 251.776 150.54 253.349Z" fill="#CCB800"/>
<path d="M143.424 203.176C143.737 204.974 144.284 206.846 144.753 207.37C145.457 208.268 143.346 212.911 142.173 212.911C141 212.911 140.609 209.467 141.156 203.7C141.782 197.485 142.486 197.26 143.424 203.176Z" fill="#CCB800"/>
<path d="M150.071 180.112C150.54 182.733 151.479 188.873 152.104 193.816C153.043 201.604 153.043 203.026 152.104 204.449C151.088 205.947 148.038 207.445 147.412 206.771C147.256 206.621 146.161 199.806 144.988 191.644C142.642 175.544 142.642 175.469 147.099 175.469C149.055 175.469 149.289 175.768 150.071 180.112Z" fill="#CCB800"/>
<path d="M139.983 180.186C139.983 181.534 139.827 181.609 139.201 180.711C138.184 179.213 138.184 177.491 139.201 178.09C139.67 178.314 139.983 179.288 139.983 180.186Z" fill="#CCB800"/>
<path d="M151.713 289.219C151.713 290.792 150.697 292.289 149.68 292.289C148.351 292.289 148.273 290.642 149.524 289.444C150.619 288.395 151.713 288.245 151.713 289.219Z" fill="#CCB800"/>
<path d="M130.99 262.468C132.397 266.437 136.542 276.921 140.139 285.832C143.815 294.668 146.787 302.381 146.787 302.906C146.787 303.879 145.066 304.703 143.033 304.703C142.329 304.703 140.687 303.879 139.436 302.981C137.637 301.558 136.307 298.787 132.71 288.902C130.208 282.163 127.314 274.45 126.219 271.754C125.124 268.983 124.186 264.789 124.03 262.019C123.717 257.526 123.873 257.151 125.672 256.253C126.767 255.728 127.783 255.279 128.018 255.279C128.253 255.279 129.582 258.499 130.99 262.468Z" fill="#CCB800"/>
<path d="M152.808 320.429C157.97 332.71 163.209 348.586 163.209 351.956C163.209 353.753 159.69 355.326 158.204 354.202C156.015 352.48 147.49 332.635 146.708 327.468C146.317 324.697 145.066 319.98 143.971 316.909C141.469 309.945 142.251 305.751 145.926 306.425C146.552 306.5 149.524 312.641 152.808 320.429Z" fill="#CCB800"/>
<path d="M129.738 290.625C132.554 298.862 133.649 301.034 136.464 304.029C139.045 306.8 139.748 307.998 139.436 309.57C139.201 310.619 139.905 314.213 141 317.583C143.111 324.548 142.877 326.12 140.452 320.878C139.592 318.856 137.715 316.086 136.307 314.588C134.04 312.191 133.649 311.143 133.258 306.575C132.945 303.355 131.381 297.439 129.191 291.224C125.437 280.44 125.516 280.74 125.985 280.74C126.219 280.74 127.862 285.158 129.738 290.625Z" fill="#CCB800"/>
<path d="M156.484 360.493C153.277 364.537 152.417 363.937 152.495 357.647V352.106L155.545 355.026L158.595 357.947L156.484 360.493Z" fill="#CCB800"/>
<path d="M162.975 361.017C162.74 361.99 162.114 364.761 161.645 367.232C160.316 373.298 159.612 373.747 158.595 369.105C157.344 363.563 157.5 362.664 159.925 360.942C162.662 358.92 163.522 358.995 162.975 361.017Z" fill="#CCB800"/>
<path d="M166.181 337.653C166.728 338.476 167.823 339.15 168.683 339.15C170.482 339.15 170.404 339.6 168.136 347.388L166.885 351.506L165.399 347.013C163.209 340.498 162.74 336.155 164.069 336.155C164.695 336.155 165.634 336.829 166.181 337.653Z" fill="#CCB800"/>
<path d="M169.231 279.242C169.778 281.114 170.795 286.506 171.421 291.224C172.046 295.941 173.219 302.681 174.079 306.126C175.722 312.791 175.487 314.438 172.594 315.936C171.812 316.31 170.091 316.685 168.762 316.685C166.572 316.685 166.337 316.385 164.852 311.817C163.991 309.196 162.505 300.809 161.567 293.246C159.925 279.991 159.925 279.467 161.254 277.445C162.427 275.797 163.131 275.423 165.477 275.648C167.98 275.872 168.292 276.172 169.231 279.242Z" fill="#CCB800"/>
<path d="M177.442 321.028C178.068 323.2 177.833 323.874 175.018 327.019C171.733 330.838 169.465 334.657 169.465 336.529C169.465 337.128 169.153 337.653 168.762 337.653C166.807 337.653 166.807 323.874 168.683 320.429C169.465 319.006 171.655 318.257 174.861 318.482C176.347 318.557 176.973 319.156 177.442 321.028Z" fill="#CCB800"/>
<path d="M165.164 318.931C165.79 319.83 164.773 323.424 163.913 323.424C163.522 323.424 163.209 322.226 163.209 320.803C163.209 318.332 164.148 317.359 165.164 318.931Z" fill="#CCB800"/>
<path d="M158.048 268.758C158.361 270.556 158.908 272.428 159.377 272.952C160.081 273.85 157.97 278.493 156.797 278.493C155.624 278.493 155.233 275.049 155.78 269.283C156.406 263.067 157.109 262.842 158.048 268.758Z" fill="#CCB800"/>
<path d="M164.695 245.694C165.164 248.315 166.103 254.455 166.728 259.398C167.667 267.186 167.667 268.609 166.728 270.031C165.712 271.529 162.662 273.027 162.036 272.353C161.88 272.203 160.785 265.389 159.612 257.226C157.266 241.126 157.266 241.051 161.723 241.051C163.678 241.051 163.913 241.35 164.695 245.694Z" fill="#CCB800"/>
<path d="M166.337 354.801C166.337 356.374 165.321 357.872 164.304 357.872C162.975 357.872 162.896 356.224 164.148 355.026C165.243 353.978 166.337 353.828 166.337 354.801Z" fill="#CCB800"/>
</svg>
